#!OML:ASF H:\Terrain\Patient Classification 1\Terrain2\Thursday\justin.ASF
:FULLY-SPECIFIED
:DEGREES
4038
root 12.8079 20.9413 11.4091 -351.611 93.7623 -358.196
lowerback 15.6929 -1.48413 0.861676
upperback 4.32143 -1.27222 4.56467
thorax -4.11136 -0.506741 4.57537
lowerneck -14.1195 -4.31178 -10.0583
upperneck 27.0757 -5.66071 9.59797
head 11.7555 -2.21761 4.54395
rclavicle 1.98785e-015 9.54166e-015
rhumerus -26.7346 -6.45547 -78.6466
rradius 28.0217
rwrist -9.45551
rhand -19.142 11.5491
rfingers 7.12502
rthumb 7.16812 -18.3096
lclavicle 1.98785e-015 9.54166e-015
lhumerus -28.8404 -12.6446 95.9401
lradius 26.0801
lwrist -9.66222
lhand -4.24832 19.9577
lfingers 7.12502
lthumb 21.5155 48.7827
rfemur -61.1736 -9.13993 25.0349
rtibia 80.4557
rfoot -23.5752 -0.345669
rtoes 18.9833
lfemur 1.65049 0.751583 -18.6449
ltibia 13.5451
lfoot 29.9908 2.24376
ltoes 0.229021
4039
root 12.8772 21.0602 11.4064 -349.162 93.7505 -355.749
lowerback 15.7015 -1.56797 1.3918
upperback 4.26735 -1.30029 4.50891
thorax -4.18602 -0.521921 4.21996
lowerneck -14.0329 -4.34704 -10.1807
upperneck 26.7879 -5.76878 9.90656
head 11.6533 -2.24803 4.65703
rclavicle 5.96354e-015 1.90833e-014
rhumerus -26.5664 -6.14145 -78.6561
rradius 27.9787
rwrist -9.24622
rhand -19.0115 11.294
rfingers 7.12502
rthumb 7.29408 -18.5602
lclavicle 5.96354e-015 1.90833e-014
lhumerus -28.8194 -12.439 95.6558
lradius 26.0843
lwrist -10.3288
lhand -4.15747 19.7562
lfingers 7.12502
lthumb 21.6027 48.5713
rfemur -60.1106 -9.2144 25.1806
rtibia 79.3032
rfoot -23.4791 -0.145741
rtoes 19.1825
lfemur 0.605895 0.887756 -18.4432
ltibia 15.9434
lfoot 28.3196 1.57746
ltoes -3.56441
4040
root 12.949 21.1856 11.4015 -342.426 93.6867 -349.016
lowerback 15.6048 -1.48678 2.09775
upperback 4.19343 -1.07802 4.58457
thorax -4.23936 -0.414187 3.85512
lowerneck -13.8521 -4.46742 -10.13
upperneck 26.5936 -5.96923 9.9376
head 11.5659 -2.3344 4.62366
rclavicle 7.95139e-015 3.97569e-014
rhumerus -26.4352 -6.52153 -78.3291
rradius 27.8285
rwrist -8.76691
rhand -18.5997 10.9557
rfingers 7.12502
rthumb 7.69155 -18.8845
lclavicle 7.95139e-015 3.97569e-014
lhumerus -28.9669 -13.2198 95.7205
lradius 26.3745
lwrist -10.0501
lhand -3.9739 19.6634
lfingers 7.12502
lthumb 21.779 48.4581
rfemur -58.9206 -9.05623 25.5599
rtibia 77.9595
rfoot -23.0604 0.13218
rtoes 20.3495
lfemur -0.698525 0.986013 -17.9472
ltibia 18.9583
lfoot 26.6409 2.24572
ltoes -3.83294
4041
root 13.0204 21.2346 11.4052 -336.333 93.5442 -342.918
lowerback 15.4398 -1.36181 2.48077
upperback 4.14201 -0.855723 4.67259
thorax -4.22124 -0.306485 3.68531
lowerneck -13.678 -4.59343 -10.1085
upperneck 26.3523 -6.17504 9.98873
head 11.4647 -2.42548 4.60068
rclavicle -8.34896e-015 4.13472e-014
rhumerus -26.1851 -6.9653 -78.025
rradius 27.4996
rwrist -8.47336
rhand -18.7944 10.8389
rfingers 7.12502
rthumb 7.50359 -19.008
lclavicle -8.34896e-015 4.13472e-014
lhumerus -29.0895 -13.7743 95.6761
lradius 26.6869
lwrist -9.79274
lhand -3.61885 19.5354
lfingers 7.12502
lthumb 22.1199 48.29
rfemur -58.1409 -8.66955 25.869
rtibia 76.9477
rfoot -22.2145 0.0827414
rtoes 21.3477
lfemur -1.50358 3.82207 -17.9107
ltibia 21.5562
lfoot 23.5024 -11.0791
ltoes -40.9588
4042
root 13.0965 21.4136 11.42 -335.322 93.4382 -341.751
lowerback 15.4451 -1.30402 2.47866
upperback 4.14949 -0.779299 4.68329
thorax -4.21951 -0.268692 3.68351
lowerneck -13.5804 -4.68326 -10.2646
upperneck 26.0687 -6.34367 10.2761
head 11.3737 -2.49041 4.70267
rclavicle 2.06736e-014 3.02153e-014
rhumerus -25.8345 -7.08128 -77.8683
rradius 27.1717
rwrist -8.54434
rhand -19.515 11.5255
rfingers 7.12502
rthumb 6.80799 -18.3451
lclavicle 2.06736e-014 3.02153e-014
lhumerus -29.0712 -13.4992 95.3699
lradius 26.9214
lwrist -9.94964
lhand -3.81519 19.9708
lfingers 7.12502
lthumb 21.9314 48.7477
rfemur -56.447 -8.39557 25.834
rtibia 75.3076
rfoot -22.5675 -1.15906
rtoes 13.751
lfemur -2.88281 1.57163 -17.4608
ltibia 24.396
lfoot 24.8846 2.79049
ltoes -5.75139
4043
root 13.1621 21.4705 11.4304 -335.768 93.3814 -341.977
lowerback 15.5234 -1.29707 2.41261
upperback 4.16998 -0.770327 4.74163
thorax -4.23856 -0.262405 3.78349
lowerneck -13.6092 -4.76545 -10.5684
upperneck 26.009 -6.44955 10.5223
head 11.3913 -2.54063 4.83205
rclavicle -7.55382e-015 1.59028e-014
rhumerus -25.407 -7.0653 -77.6092
rradius 26.9622
rwrist -8.76715
rhand -19.4637 12.1005
rfingers 7.12502
rthumb 6.8575 -17.7684
lclavicle -7.55382e-015 1.59028e-014
lhumerus -29.0629 -13.0251 95.1167
lradius 27.2743
lwrist -9.8832
lhand -4.62309 20.6597
lfingers 7.12502
lthumb 21.1555 49.5254
rfemur -55.3244 -8.22118 25.7702
rtibia 74.1512
rfoot -22.5916 -2.02558
rtoes 8.99036
lfemur -3.38291 3.75231 -17.761
ltibia 26.5241
lfoot 23.9026 -8.35671
ltoes -35.6943
4044
root 13.2406 21.6761 11.4301 -331.294 93.3058 -337.323
lowerback 15.5489 -1.28092 2.64653
upperback 4.11314 -0.698885 4.85832
thorax -4.31765 -0.226944 3.76361
lowerneck -13.5977 -4.81498 -10.77
upperneck 26.097 -6.49493 10.6024
head 11.4398 -2.57046 4.89533
rclavicle 1.39149e-014 4.29375e-014
rhumerus -25.1645 -7.37132 -77.2244
rradius 26.7885
rwrist -8.20894
rhand -19.1132 11.9158
rfingers 7.12502
rthumb 7.1959 -17.9419
lclavicle 1.39149e-014 4.29375e-014
lhumerus -29.1187 -12.6079 94.9052
lradius 27.5464
lwrist -9.46222
lhand -5.32311 20.6667
lfingers 7.12502
lthumb 20.4829 49.6063
rfemur -53.6604 -8.02137 25.8304
rtibia 72.6548
rfoot -22.5311 -1.25587
rtoes 13.206
lfemur -4.67562 2.34614 -17.1368
ltibia 29.3754
lfoot 25.1649 1.63858
ltoes -5.4204
4045
root 13.3111 21.734 11.4286 -325.808 93.244 -331.617
lowerback 15.5644 -1.22461 2.91421
upperback 4.05024 -0.570714 4.96018
thorax -4.40061 -0.164285 3.69768
lowerneck -13.4872 -4.86276 -10.6579
upperneck 25.9442 -6.56765 10.4964
head 11.3603 -2.60917 4.81869
rclavicle 1.90833e-014 -2.38542e-014
rhumerus -25.0184 -7.77025 -76.8257
rradius 26.7193
rwrist -7.57187
rhand -19.03 11.3131
rfingers 7.12502
rthumb 7.27622 -18.5418
lclavicle 1.90833e-014 -2.38542e-014
lhumerus -29.0827 -11.8724 94.6219
lradius 27.609
lwrist -9.35389
lhand -5.86691 19.9761
lfingers 7.12502
lthumb 19.9603 48.971
rfemur -52.6064 -7.7336 26.0014
rtibia 71.6547
rfoot -22.3189 -0.839899
rtoes 16.8801
lfemur -5.18691 4.42312 -17.1558
ltibia 31.6665
lfoot 24.2717 -8.67258
ltoes -31.5389
4046
root 13.3939 21.8984 11.4315 -322.743 93.1991 -328.371
lowerback 15.4141 -1.19433 3.06561
upperback 4.04301 -0.511291 5.03107
thorax -4.33061 -0.13529 3.67234
lowerneck -13.4706 -4.98479 -10.6859
upperneck 25.7064 -6.73609 10.508
head 11.2904 -2.69202 4.79342
rclavicle -3.45885e-014 -9.70069e-014
rhumerus -24.6846 -8.06808 -76.5416
rradius 26.7198
rwrist -7.84827
rhand -18.9754 10.6483
rfingers 7.12502
rthumb 7.32888 -19.2048
lclavicle -3.45885e-014 -9.70069e-014
lhumerus -28.9546 -10.7872 94.2913
lradius 27.731
lwrist -9.36818
lhand -6.57553 20.3634
lfingers 7.12502
lthumb 19.279 49.4278
rfemur -50.9059 -7.62883 26.0456
rtibia 70.0329
rfoot -22.2605 -0.682282
rtoes 18.1293
lfemur -6.32281 2.99013 -16.6827
ltibia 34.3299
lfoot 25.7723 -0.0942428
ltoes -2.02173
4047
root 13.4692 22.01 11.4301 -321.237 93.1718 -326.741
lowerback 15.2389 -1.17191 3.21712
upperback 3.98038 -0.468609 5.05222
thorax -4.30529 -0.116511 3.59763
lowerneck -13.3448 -5.10673 -10.9506
upperneck 25.4979 -6.92981 10.8108
head 11.2345 -2.7769 4.91985
rclavicle -1.15295e-014 -5.56597e-014
rhumerus -24.3815 -8.38182 -76.335
rradius 26.6018
rwrist -8.40074
rhand -19.7093 10.5272
rfingers 7.12502
rthumb 6.62049 -19.3493
lclavicle -1.15295e-014 -5.56597e-014
lhumerus -28.8428 -9.65576 93.9517
lradius 27.8333
lwrist -9.02157
lhand -7.24425 20.7793
lfingers 7.12502
lthumb 18.6359 49.9066
rfemur -49.5925 -7.61671 26.0299
rtibia 68.6663
rfoot -22.0788 -0.753449
rtoes 17.4762
lfemur -7.22176 3.46179 -16.6336
ltibia 36.7589
lfoot 25.8017 -1.35023
ltoes -4.7331
